<svg xmlns="http://www.w3.org/2000/svg" viewBox="0 0 64 64" role="img" aria-label="Google Maps">
  <defs>
    <linearGradient id="g1" x1="0" y1="0" x2="1" y2="1">
      <stop offset="0" stop-color="#34a853"/>
      <stop offset="1" stop-color="#0f9d58"/>
    </linearGradient>
    <linearGradient id="g2" x1="0" y1="1" x2="1" y2="0">
      <stop offset="0" stop-color="#4285f4"/>
      <stop offset="1" stop-color="#1a73e8"/>
    </linearGradient>
    <linearGradient id="g3" x1="0" y1="0" x2="1" y2="0">
      <stop offset="0" stop-color="#fbbc04"/>
      <stop offset="1" stop-color="#f29900"/>
    </linearGradient>
    <linearGradient id="g4" x1="0" y1="0" x2="0" y2="1">
      <stop offset="0" stop-color="#ea4335"/>
      <stop offset="1" stop-color="#d93025"/>
    </linearGradient>
  </defs>
  <path d="M8 22 26 8l14 6-18 20z" fill="url(#g1)"/>
  <path d="M8 22 30 58 48 38 26 8z" fill="url(#g2)"/>
  <path d="m40 14 16 10-8 10-16-20z" fill="url(#g3)"/>
  <path d="M42 6c-7 0-13 6-13 13 0 10 13 23 13 23s13-13 13-23C55 12 49 6 42 6z" fill="url(#g4)"/>
  <circle cx="42" cy="19" r="4.8" fill="#fff"/>
</svg>
